{"title":"X-Art.13.09.10.Dillion.Harper.A.Perfect.Match.XXX.1080p.MP4-SEXO","uid":8904053,"size":1238558251,"categoryP":"porn","categoryS":"movie_clips","magnet":"?xt=urn:btih:5321a5e7726d6bcc88f830fce4d79f2800929469&amp;dn=X-Art.13.09.10.Dillion.Harper.A.Perfect.Match.XXX.1080p.MP4-SEXO&amp;tr=udp%3A%2F%2Ftracker.openbittorrent.com%3A80&amp;tr=udp%3A%2F%2Fopen.demonii.com%3A1337&amp;tr=udp%3A%2F%2Ftracker.coppersurfer.tk%3A6969&amp;tr=udp%3A%2F%2Fexodus.desync.com%3A6969","seeders":0,"leechers":1,"uploader":null,"files":1,"time":1378868275,"description":" &lt;a href=&quot;http://picturemost.biz/share.php?id=B3A2_522FBFC8&quot; rel=&quot;nofollow&quot; target=&quot;_NEW&quot;&gt;http://picturemost.biz/share.php?id=B3A2_522FBFC8&lt;/a&gt;\n\n\n\nYou know when some things just work out perfectly, well this was one of those \ntimes. Dillion and Jay\njust clicked. Two beautiful brunettes getting it on hot and heavy in our movie room. Watch as they ravish each\nother's lithe, young bodies and have hot sex from multiple angles. Dillion is so stunning that I can't belive\nshe is single. Jay couldn't believe his luck. Amazing natural breasts and one of the most perfect bodies (and\npretty pussies) I've seen! This is an X-Art must see ;-) A perfect match!\n\n\n\n\nFormat : MPEG-4\nFormat profile : Base Media\nCodec ID : isom\nFile size : 1.15 GiB\nDuration : 19mn 32s\nOverall bit rate mode : Variable\nOverall bit rate : 8 453 Kbps\nWriting application : Lavf54.22.100\n\nVideo\nID : 1\nFormat : MPEG-4 Visual\nFormat profile : Simple@L1\nFormat settings, BVOP : No\nFormat settings, QPel : No\nFormat settings, GMC : No warppoints\nFormat settings, Matrix : Default (H.263)\nCodec ID : 20\nDuration : 19mn 32s\nBit rate mode : Variable\nBit rate : 8 330 Kbps\nMaximum bit rate : 8 500 Kbps\nWidth : 1 920 pixels\nHeight : 1 080 pixels\nDisplay aspect ratio : 16:9\nFrame rate mode : Constant\nFrame rate : 23.976 fps\nColor space : YUV\nChroma subsampling : 4:2:0\nBit depth : 8 bits\nScan type : Progressive\nCompression mode : Lossy\nBits/(Pixel*Frame) : 0.168\nStream size : 1.14 GiB (99%)\nWriting library : Lavc54.46.100\nLanguage : English\n\nAudio\nID : 2\nFormat : AAC\nFormat/Info : Advanced Audio Codec\nFormat profile : LC\nCodec ID : 40\nDuration : 19mn 32s\nDuration_LastFrame : -1ms\nBit rate mode : Variable\nBit rate : 119 Kbps\nMaximum bit rate : 128 Kbps\nChannel(s) : 2 channels\nChannel positions : Front: L R\nSampling rate : 48.0 KHz\nCompression mode : Lossy\nStream size : 16.7 MiB (1%)\nLanguage : English","torrent":{"xt":"urn:btih:5321a5e7726d6bcc88f830fce4d79f2800929469","amp;dn":"X-Art.13.09.10.Dillion.Harper.A.Perfect.Match.XXX.1080p.MP4-SEXO","amp;tr":["udp%3A%2F%2Ftracker.openbittorrent.com%3A80","udp%3A%2F%2Fopen.demonii.com%3A1337","udp%3A%2F%2Ftracker.coppersurfer.tk%3A6969","udp%3A%2F%2Fexodus.desync.com%3A6969"],"infoHash":"5321a5e7726d6bcc88f830fce4d79f2800929469","infoHashBuffer":{"type":"Buffer","data":[83,33,165,231,114,109,107,204,136,248,48,252,228,215,159,40,0,146,148,105]},"announce":[],"urlList":[]}}